<svg width="142" height="48" viewBox="0 0 142 48" fill="none" xmlns="http://www.w3.org/2000/svg">
<path fill-rule="evenodd" clip-rule="evenodd" d="M21.5633 21.5634C9.65424 21.5634 -4.22e-07 11.9091 -9.42564e-07 1.37687e-05C11.9091 1.32481e-05 21.5633 9.65425 21.5633 21.5634Z" fill="#B9E6E1"/>
<path fill-rule="evenodd" clip-rule="evenodd" d="M37.5201 21.5634C25.611 21.5634 15.9568 11.9091 15.9568 1.37687e-05C27.8659 1.32481e-05 37.5201 9.65425 37.5201 21.5634Z" fill="#51C0B7"/>
<path fill-rule="evenodd" clip-rule="evenodd" d="M53.4772 21.5634C41.5681 21.5634 31.9138 11.9091 31.9138 1.37687e-05C43.8229 1.32481e-05 53.4772 9.65425 53.4772 21.5634Z" fill="#38897A"/>
<path d="M0 42.7213V29.0587H3.33801L3.44151 30.7924C3.83827 30.1369 4.37305 29.6194 5.04582 29.2399C5.7186 28.8604 6.47763 28.6706 7.32291 28.6706C8.2372 28.6706 9.04798 28.8949 9.75526 29.3434C10.4798 29.7919 11.0404 30.4129 11.4372 31.2065C11.8512 30.4474 12.4464 29.835 13.2226 29.3693C14.0162 28.9035 14.9218 28.6706 15.9396 28.6706C16.9574 28.6706 17.8372 28.9121 18.579 29.3951C19.3208 29.8609 19.89 30.5337 20.2868 31.4135C20.7008 32.2932 20.9078 33.3283 20.9078 34.5186V42.7213H17.2852V34.9843C17.2852 34.0356 17.0782 33.2938 16.6642 32.759C16.2501 32.207 15.6722 31.931 14.9305 31.931C14.4129 31.931 13.9472 32.0604 13.5332 32.3191C13.1364 32.5606 12.8259 32.9056 12.6016 33.3542C12.3774 33.8027 12.2652 34.3116 12.2652 34.8808V42.7213H8.64259V34.9843C8.64259 34.0356 8.43558 33.2938 8.02156 32.759C7.60755 32.207 7.02965 31.931 6.28787 31.931C5.77035 31.931 5.30458 32.0604 4.89057 32.3191C4.4938 32.5606 4.18329 32.9056 3.95903 33.3542C3.73477 33.8027 3.62264 34.3116 3.62264 34.8808V42.7213H0Z" fill="black"/>
<path d="M30.2729 43.1094C29.2551 43.1094 28.315 42.9369 27.4524 42.5919C26.6071 42.2296 25.874 41.7294 25.253 41.0911C24.6319 40.4356 24.1489 39.6679 23.8039 38.7881C23.4589 37.8911 23.2864 36.9164 23.2864 35.8641C23.2864 34.8463 23.4589 33.8976 23.8039 33.0178C24.1489 32.138 24.6233 31.379 25.2271 30.7407C25.8481 30.0852 26.5726 29.5763 27.4007 29.214C28.2287 28.8517 29.1257 28.6706 30.0918 28.6706C31.0923 28.6706 31.998 28.8431 32.8088 29.1881C33.6368 29.5331 34.3441 30.0248 34.9306 30.6631C35.5171 31.3013 35.9656 32.0604 36.2761 32.9401C36.6039 33.8199 36.7678 34.8032 36.7678 35.89V36.7957H26.9608C27.116 37.8135 27.4869 38.6156 28.0735 39.2021C28.66 39.7714 29.4018 40.056 30.2988 40.056C30.9198 40.056 31.4805 39.9094 31.9807 39.6162C32.4982 39.3229 32.9209 38.9003 33.2487 38.3482L36.4832 39.3833C36.1726 40.1595 35.7069 40.8237 35.0859 41.3757C34.4648 41.9277 33.7403 42.359 32.9123 42.6695C32.0842 42.9628 31.2044 43.1094 30.2729 43.1094ZM30.0918 31.4652C29.2982 31.4652 28.6255 31.724 28.0735 32.2415C27.5387 32.759 27.185 33.4663 27.0125 34.3633H33.0416C32.9036 33.4663 32.5673 32.759 32.0325 32.2415C31.515 31.724 30.8681 31.4652 30.0918 31.4652Z" fill="black"/>
<path d="M39.0162 42.7213V29.0587H42.3542L42.4836 31.1288C42.8286 30.4043 43.2943 29.8523 43.8809 29.4728C44.4674 29.076 45.1574 28.8776 45.9509 28.8776C46.1925 28.8776 46.434 28.9035 46.6755 28.9552C46.917 28.9897 47.1326 29.0415 47.3224 29.1105L46.9342 32.6814C46.7445 32.6124 46.5461 32.5693 46.3391 32.552C46.1493 32.5175 45.9509 32.5003 45.7439 32.5003C44.7434 32.5003 43.9757 32.8108 43.441 33.4318C42.9062 34.0356 42.6388 34.8981 42.6388 36.0194V42.7213H39.0162Z" fill="black"/>
<path d="M53.2154 43.1094C52.5082 43.1094 51.8613 43.0059 51.2747 42.7989C50.6882 42.5919 50.1707 42.2986 49.7222 41.9191C49.2909 41.5224 48.9545 41.0652 48.713 40.5477C48.4715 40.0302 48.3507 39.4609 48.3507 38.8399C48.3507 37.9773 48.5836 37.2183 49.0494 36.5628C49.5152 35.9073 50.1707 35.3984 51.016 35.0361C51.8613 34.6566 52.8445 34.4668 53.9658 34.4668C54.5351 34.4668 55.0699 34.5186 55.5702 34.6221C56.0877 34.7256 56.5879 34.8722 57.071 35.062V34.2598C57.071 33.4835 56.8467 32.8539 56.3982 32.3709C55.9669 31.8879 55.3718 31.6463 54.6127 31.6463C54.0435 31.6463 53.5259 31.793 53.0602 32.0862C52.5944 32.3622 52.2666 32.759 52.0769 33.2765L48.8424 32.6296C49.0321 31.8361 49.403 31.1461 49.9551 30.5596C50.5243 29.9558 51.2144 29.49 52.0251 29.1622C52.8359 28.8345 53.7157 28.6706 54.6645 28.6706C55.5443 28.6706 56.3464 28.8086 57.071 29.0846C57.7955 29.3606 58.4165 29.7574 58.934 30.2749C59.4688 30.7924 59.8742 31.4048 60.1502 32.1121C60.4435 32.8021 60.5901 33.5784 60.5901 34.441V42.7213H57.3556L57.2521 41.117C56.8898 41.7035 56.3637 42.1865 55.6737 42.566C54.9836 42.9283 54.1642 43.1094 53.2154 43.1094ZM51.9216 38.6587C51.9216 39.1418 52.12 39.5385 52.5168 39.849C52.9135 40.1595 53.4397 40.3148 54.0952 40.3148C54.6645 40.3148 55.1734 40.1941 55.6219 39.9525C56.0704 39.711 56.4241 39.3833 56.6828 38.9693C56.9416 38.538 57.071 38.0636 57.071 37.5461V37.4167C56.6914 37.2614 56.286 37.1407 55.8548 37.0544C55.4235 36.9509 54.9922 36.8992 54.561 36.8992C53.7502 36.8992 53.1033 37.0631 52.6203 37.3908C52.1545 37.7013 51.9216 38.124 51.9216 38.6587Z" fill="black"/>
<path d="M63.4771 42.7213V23.4178H67.0221V34.6221L72.0938 29.0587H76.3375L70.6447 35.1137L76.9585 42.7213H72.3784L67.0221 35.9159V42.7213H63.4771Z" fill="black"/>
<path d="M82.3939 25.3585C82.3939 25.7552 82.299 26.1089 82.1092 26.4194C81.9367 26.7299 81.6866 26.98 81.3588 27.1698C81.0483 27.3423 80.7033 27.4286 80.3238 27.4286C79.9443 27.4286 79.5906 27.3423 79.2629 27.1698C78.9524 26.98 78.7022 26.7299 78.5125 26.4194C78.34 26.1089 78.2537 25.7552 78.2537 25.3585C78.2537 24.9617 78.34 24.6081 78.5125 24.2976C78.7022 23.987 78.9524 23.7455 79.2629 23.573C79.5906 23.3833 79.9443 23.2884 80.3238 23.2884C80.7033 23.2884 81.0483 23.3833 81.3588 23.573C81.6866 23.7455 81.9367 23.987 82.1092 24.2976C82.299 24.6081 82.3939 24.9617 82.3939 25.3585ZM78.5125 42.7213V29.0587H82.1351V42.7213H78.5125Z" fill="black"/>
<path d="M85.032 42.7213V29.0587H88.37L88.4735 30.8183C88.8703 30.1628 89.4137 29.6453 90.1037 29.2657C90.811 28.869 91.6131 28.6706 92.5102 28.6706C93.5107 28.6706 94.3819 28.9121 95.1236 29.3951C95.8827 29.8609 96.4692 30.5337 96.8832 31.4135C97.2972 32.2932 97.5042 33.3283 97.5042 34.5186V42.7213H93.8816V34.9843C93.8816 34.0356 93.666 33.2938 93.2347 32.759C92.8034 32.207 92.2083 31.931 91.4493 31.931C90.8972 31.931 90.4142 32.0604 90.0002 32.3191C89.5862 32.5606 89.2584 32.9056 89.0169 33.3542C88.7754 33.8027 88.6546 34.3116 88.6546 34.8808V42.7213H85.032Z" fill="black"/>
<path d="M106.968 43.1094C105.951 43.1094 105.01 42.9283 104.148 42.566C103.285 42.2038 102.535 41.7035 101.897 41.0652C101.258 40.4097 100.758 39.642 100.396 38.7622C100.051 37.8825 99.8784 36.925 99.8784 35.89C99.8784 34.855 100.059 33.9062 100.422 33.0436C100.784 32.1639 101.284 31.3962 101.923 30.7407C102.578 30.0852 103.337 29.5763 104.2 29.214C105.079 28.8517 106.037 28.6706 107.072 28.6706C108.09 28.6706 109.03 28.8517 109.892 29.214C110.755 29.5763 111.505 30.0852 112.144 30.7407C112.782 31.379 113.274 32.138 113.619 33.0178C113.981 33.8803 114.162 34.8291 114.162 35.8641C114.162 36.8992 113.981 37.8566 113.619 38.7364C113.256 39.6162 112.747 40.3838 112.092 41.0393C111.454 41.6949 110.695 42.2038 109.815 42.566C108.952 42.9283 108.003 43.1094 106.968 43.1094ZM107.02 39.849C107.676 39.849 108.262 39.6765 108.78 39.3315C109.297 38.9865 109.703 38.5207 109.996 37.9342C110.306 37.3304 110.462 36.649 110.462 35.89C110.462 35.131 110.306 34.4582 109.996 33.8717C109.703 33.2679 109.297 32.7935 108.78 32.4485C108.262 32.1035 107.676 31.931 107.02 31.931C106.365 31.931 105.778 32.1035 105.261 32.4485C104.743 32.7935 104.329 33.2679 104.019 33.8717C103.725 34.4582 103.579 35.131 103.579 35.89C103.579 36.649 103.725 37.3304 104.019 37.9342C104.329 38.5207 104.743 38.9865 105.261 39.3315C105.778 39.6765 106.365 39.849 107.02 39.849Z" fill="black"/>
<path d="M118.34 48C117.874 48 117.434 47.9482 117.02 47.8447C116.606 47.7585 116.218 47.6118 115.856 47.4048L116.555 44.5585C116.744 44.6447 116.969 44.7137 117.227 44.7655C117.486 44.8345 117.728 44.869 117.952 44.869C118.452 44.869 118.883 44.731 119.246 44.455C119.625 44.1962 119.936 43.7736 120.177 43.187L120.41 42.5919L114.899 29.0587H118.858L122.092 38.7364L125.016 29.0587H128.846L123.231 44.0151C122.713 45.3951 122.049 46.4043 121.238 47.0426C120.445 47.6808 119.479 48 118.34 48Z" fill="black"/>
<path d="M134.331 43.1094C133.623 43.1094 132.976 43.0059 132.39 42.7989C131.803 42.5919 131.286 42.2986 130.837 41.9191C130.406 41.5224 130.07 41.0652 129.828 40.5477C129.587 40.0302 129.466 39.4609 129.466 38.8399C129.466 37.9773 129.699 37.2183 130.165 36.5628C130.63 35.9073 131.286 35.3984 132.131 35.0361C132.976 34.6566 133.96 34.4668 135.081 34.4668C135.65 34.4668 136.185 34.5186 136.685 34.6221C137.203 34.7256 137.703 34.8722 138.186 35.062V34.2598C138.186 33.4835 137.962 32.8539 137.513 32.3709C137.082 31.8879 136.487 31.6463 135.728 31.6463C135.159 31.6463 134.641 31.793 134.175 32.0862C133.71 32.3622 133.382 32.759 133.192 33.2765L129.958 32.6296C130.147 31.8361 130.518 31.1461 131.07 30.5596C131.64 29.9558 132.33 29.49 133.14 29.1622C133.951 28.8345 134.831 28.6706 135.78 28.6706C136.66 28.6706 137.462 28.8086 138.186 29.0846C138.911 29.3606 139.532 29.7574 140.049 30.2749C140.584 30.7924 140.989 31.4048 141.265 32.1121C141.559 32.8021 141.705 33.5784 141.705 34.441V42.7213H138.471L138.367 41.117C138.005 41.7035 137.479 42.1865 136.789 42.566C136.099 42.9283 135.279 43.1094 134.331 43.1094ZM133.037 38.6587C133.037 39.1418 133.235 39.5385 133.632 39.849C134.029 40.1595 134.555 40.3148 135.21 40.3148C135.78 40.3148 136.289 40.1941 136.737 39.9525C137.186 39.711 137.539 39.3833 137.798 38.9693C138.057 38.538 138.186 38.0636 138.186 37.5461V37.4167C137.807 37.2614 137.401 37.1407 136.97 37.0544C136.539 36.9509 136.107 36.8992 135.676 36.8992C134.865 36.8992 134.219 37.0631 133.736 37.3908C133.27 37.7013 133.037 38.124 133.037 38.6587Z" fill="black"/>
</svg>
